PathFileType	4	(X/Y/Z)	C:/Users/beibeiliu/ov580/test_trc/User3\sequence.22_training_dense_left.trc
DataRate	CameraRate	NumFrames	NumMarkers	Units	OrigDataRate	OrigDataStartFrame	OrigNumFrames
120	120	11	19	mm	120	66	262
Frame#	Time	ThumbCMC			ThumbMCP			ThumbIP			ThumbTip			IndexMCP			IndexPIP			IndexTip			MiddleMCP			MiddlePIP			MiddleTip			RingMCP			RingPIP			RingTip			PinkyMCP			PinkyPIP			PinkyTip			BackHand1			BackHand2			BackHand3	
		X0	Y0	Z0	X1	Y1	Z1	X2	Y2	Z2	X3	Y3	Z3	X4	Y4	Z4	X5	Y5	Z5	X6	Y6	Z6	X7	Y7	Z7	X8	Y8	Z8	X9	Y9	Z9	X10	Y10	Z10	X11	Y11	Z11	X12	Y12	Z12	X13	Y13	Z13	X14	Y14	Z14	X15	Y15	Z15	X16	Y16	Z16	X17	Y17	Z17	X18	Y18	Z18	
65	0.541667	-238.367	-3.94959	10.4221	-221.121	-1.0267	-20.7304	-208.153	-0.439889	-42.68	-203.398	-10.4072	-67.5864	-282.375	-13.3859	-50.2266	-277.857	-21.3249	-84.4479	-255.648	-27.203	-104.7	-294.046	-28.0405	-56.3408	-286.164	-36.8615	-88.2276	-255.565	-45.8369	-100.929	-290.207	-45.9523	-49.4022	-284.571	-51.9764	-79.363	-259.259	-60.2147	-94.4703	-283.001	-62.9907	-36.333	-283.838	-68.8063	-60.8266	-271.306	-64.4127	-83.5949	-284.402	-47.7737	6.82882	-282.453	-51.1557	31.5473	-277.356	-17.4132	15.4583	
66	0.55	-229.092	-7.08316	10.3617	-210.681	-5.72878	-16.4304	-199.72	-7.9253	-44.667	-194.898	-17.9443	-68.929	-274.638	-6.00826	-50.7584	-272.741	-12.5872	-84.3667	-251.209	-24.1276	-103.629	-291.023	-20.7664	-57.4905	-284.579	-23.012	-87.6063	-251.604	-44.3815	-100.591	-291.141	-38.9142	-50.4289	-288.005	-46.5939	-79.8061	-264.211	-55.8699	-94.3212	-287.498	-58.4949	-33.9628	-286.461	-57.8416	-60.9888	-274.116	-65.4668	-83.7814	-286.589	-39.3494	6.42756	-282.019	-45.0373	30.5473	-271.028	-11.7928	15.6262	
67	0.558333	-219.267	-12.588	11.2036	-201.414	-16.4848	-14.7412	-188.763	-17.8259	-44.1149	-191.946	-31.1083	-67.9579	-264.963	-3.81481	-50.5109	-262.77	-7.15726	-82.7048	-245.1	-22.3241	-102.421	-281.722	-13.1231	-56.0014	-276.108	-19.3382	-88.7316	-251.724	-43.4542	-99.7158	-287.439	-29.1947	-49.7486	-282.596	-36.851	-81.2054	-261.143	-53.112	-93.9767	-289.26	-48.0378	-39.5352	-286.342	-49.9309	-65.3942	-269.904	-57.6519	-85.5126	-285.112	-31.904	5.84817	-279.061	-37.7703	29.4457	-260.87	-9.50252	15.0135	
68	0.566667	-210.776	-20.0796	13.7335	-192.546	-24.9846	-13.3282	-184.547	-28.9848	-39.2861	-183.842	-39.4923	-65.9417	-253.261	0.662694	-52.7282	-251.331	-6.51346	-85.9715	-239.023	-26.2566	-100.242	-272.683	-5.69013	-55.6529	-268.831	-13.119	-86.367	-245.483	-39.9205	-98.8908	-279.563	-20.3748	-47.5374	-278.189	-27.7726	-79.321	-263.467	-50.2108	-93.0541	-288.445	-40.7719	-38.0917	-282.963	-39.736	-64.468	-269.188	-48.8609	-83.6069	-278.926	-24.8259	2.63125	-278.123	-32.8916	31.5473	-252.205	-9.95582	14.4605	
69	0.575	-207.618	-27.9723	16.0266	-189.265	-32.8922	-13.992	-178.235	-37.227	-40.4966	-179.361	-47.639	-63.9104	-239.282	3.71863	-52.0159	-239.745	-5.99951	-83.8407	-230.047	-27.6918	-98.1948	-262.471	-1.44594	-57.3807	-259.497	-9.15787	-85.904	-239.934	-42.3401	-97.4983	-274.851	-16.058	-47.9187	-274.285	-20.8366	-77.129	-257.486	-44.0876	-91.9367	-283.317	-32.099	-37.9154	-277.82	-31.9514	-62.9202	-270.012	-43.4848	-82.8735	-273.604	-21.161	7.71153	-271.818	-30.9815	35.7074	-242.882	-10.0324	17.1398	
70	0.583333	-199.517	-32.3606	17.0644	-188.465	-40.1047	-11.0172	-175.933	-45.4616	-39.668	-179.477	-53.0631	-64.4815	-230.238	3.74784	-49.6441	-229.368	-0.611743	-78.9175	-223.994	-30.3958	-97.3625	-249.415	2.02134	-52.4226	-250.209	-6.01469	-83.7293	-233.743	-38.3875	-95.5815	-267.727	-10.6739	-44.7986	-263.151	-16.8166	-78.1539	-252.18	-45.2707	-90.9859	-278.457	-25.8458	-36.9449	-277.513	-27.4007	-60.5409	-262.262	-39.8414	-82.6828	-267.993	-17.3903	6.64343	-261.7	-26.3623	35.7254	-234.371	-10.8044	19.6488	
71	0.591667	-195.583	-35.908	15.4307	-181.892	-47.082	-7.99362	-176.9	-51.4768	-38.3527	-178.677	-59.487	-64.0711	-225.825	0.385917	-47.0664	-223.59	-5.43719	-78.999	-219.1	-31.9241	-94.9736	-241.734	4.59273	-49.3311	-238.798	-3.13563	-82.0182	-230.918	-41.4689	-93.8616	-257.19	-5.1958	-45.1868	-258.374	-9.40672	-72.2055	-249.825	-41.7478	-88.8985	-272.581	-22.8286	-30.2106	-268.977	-20.9247	-58.5295	-259.381	-33.9941	-81.9905	-259.884	-13.4747	7.24736	-258.238	-22.3976	36.596	-223.839	-9.64095	19.9799	
72	0.6	-190.773	-41.9048	20.6235	-180.305	-51.7721	-8.44575	-172.295	-57.6819	-38.2836	-182.216	-62.8712	-62.5286	-217.824	-0.288071	-46.3102	-219.429	-5.764	-77.0086	-214.676	-30.5711	-93.4776	-236.778	4.44406	-51.1993	-237.144	-6.86617	-82.5215	-232.221	-41.0095	-91.9447	-252.491	-3.36457	-42.8745	-251.855	-8.90977	-73.8586	-245.536	-39.1913	-87.4635	-263.625	-18.616	-28.49	-265.543	-16.785	-56.0632	-261.395	-31.4898	-80.5835	-254.492	-10.9969	11.9144	-250.851	-20.0517	41.1244	-219.799	-12.0191	22.8692	
73	0.608333	-189.006	-43.6398	20.9637	-180.766	-52.7935	-10.7634	-174.595	-61.3818	-41.4936	-179.918	-70.2346	-62.0746	-211.037	-3.89219	-45.5254	-212.692	-9.54495	-78.9762	-215.877	-38.174	-93.6763	-229.249	0.931188	-50.1306	-233.334	-7.4705	-80.5551	-232.103	-47.646	-91.2116	-246.161	-4.78438	-40.4515	-247.954	-12.2417	-73.7001	-246.601	-42.9214	-85.4914	-260.522	-16.4249	-30.9225	-264.229	-18.1294	-56.7927	-255.128	-35.3211	-77.7976	-245.329	-10.2764	9.18151	-249.894	-18.0478	36.8848	-214.892	-12.4103	20.1615	
74	0.616667	-188.143	-44.2908	19.2802	-174.832	-57.8774	-9.93376	-173.489	-66.8459	-41.0824	-178.44	-76.3031	-61.3475	-210.028	-8.91836	-47.6769	-214.59	-15.7628	-78.8322	-212.76	-42.8713	-94.4815	-227.802	-2.49468	-53.8119	-232.232	-14.8053	-82.0902	-229.196	-50.6085	-91.9836	-242.676	-8.62064	-40.4489	-249.923	-16.9929	-74.6626	-248.223	-43.2121	-83.6071	-261.126	-19.4416	-29.3486	-260.49	-20.9613	-52.7331	-255.848	-38.8063	-74.9209	-245.633	-13.7926	11.9508	-240.576	-16.2821	39.5507	-209.382	-13.6395	20.1759	
75	0.625	-182.532	-46.0754	18.4165	-175.899	-61.8424	-9.33256	-170.62	-72.7986	-35.9841	-178.626	-83.9374	-57.7898	-211.624	-13.9561	-48.3298	-215.962	-25.6629	-80.3789	-212.642	-50.9798	-94.2176	-226.751	-8.72086	-53.3804	-233.009	-22.3065	-82.8023	-232.153	-62.1114	-89.3919	-245.883	-13.7361	-43.3257	-247.029	-22.497	-73.1602	-249.234	-56.7269	-82.8325	-258.03	-25.3621	-27.0235	-262.804	-26.9716	-53.3207	-255.826	-45.6952	-73.7934	-239.152	-12.9373	6.57245	-237.416	-16.9762	40.6819	-208.88	-14.0208	21.8267	
